# xmcd CD database file
#
# Track frame offsets:
#	150
#	23700
#	46037
#	65612
#	92962
#	117325
#	139900
#	162850
#	187687
#	219787
#
# Disc length: 3087 seconds
#
# Revision: 3
# Processed by: cddbd v1.5.2PL0 Copyright (c) Steve Scherf et al.
# Submitted via: CDex 1.70beta3
#
DISCID=7e0c0d0a
DTITLE=松岡直也 - シーラカンスの夢
DYEAR=1996
DGENRE=Jazz
TTITLE0=雨上がりの街
TTITLE1=風と歩こう！～Twilight Step～
TTITLE2=七つの海を越えて
TTITLE3=Eden～裸足のままで
TTITLE4=海岸通りの"Jessy's Bar"
TTITLE5=夕陽を抱きしめて
TTITLE6=シーラカンス碧
TTITLE7=Lady Swallow
TTITLE8=太陽がある限り～Asi es la vida
TTITLE9=出逢いの扉
EXTD=YEAR: 1996
EXTT0=
EXTT1=
EXTT2=
EXTT3=
EXTT4=
EXTT5=
EXTT6=
EXTT7=
EXTT8=
EXTT9=
PLAYORDER=
